<svg aria-hidden="true" style="position:absolute;width:0;height:0;overflow:hidden" xmlns="http://www.w3.org/2000/svg">
  <defs>
    <symbol id="icon-arrow-left" viewBox="0 0 32 32">
      <path d="M15.642 31.531c8.619.136 15.753-6.778 15.888-15.397S24.752.381 16.133.246C7.514.11.38 7.024.245 15.643s6.778 15.753 15.397 15.888zm-4.105-16.54 5.609-5.435c.238-.231.537-.336.834-.331s.593.119.824.357a1.18 1.18 0 0 1-.026 1.658l-4.767 4.619 4.619 4.767c.447.461.435 1.212-.026 1.658s-1.212.435-1.658-.026l-5.435-5.609a1.153 1.153 0 0 1 .026-1.658z"/>
    </symbol>
    <symbol id="icon-arrow-right" viewBox="0 0 32 32">
      <path d="M16 0C7.184 0 0 7.184 0 16s7.184 16 16 16c8.816 0 16-7.184 16-16S24.816 0 16 0zm4.464 16.848-5.648 5.648c-.24.24-.544.352-.848.352s-.608-.112-.848-.352a1.207 1.207 0 0 1 0-1.696l4.8-4.8-4.8-4.8c-.464-.464-.464-1.232 0-1.696s1.232-.464 1.696 0l5.648 5.648c.48.464.48 1.232 0 1.696z"/>
    </symbol>
    <symbol id="icon-dot-2" viewBox="0 0 32 32">
      <path d="M16 0C7.161 0 0 7.161 0 16s7.161 16 16 16 16-7.161 16-16S24.839 0 16 0z"/>
    </symbol>
    <symbol id="icon-dot-3" viewBox="0 0 32 32">
      <path d="M16 0C7.161 0 0 7.161 0 16s7.161 16 16 16 16-7.161 16-16S24.839 0 16 0z"/>
    </symbol>
    <symbol id="icon-Frame-7" viewBox="0 0 32 32">
      <path d="M32 16c0-8.816-7.184-16-16-16S0 7.184 0 16c0 8.816 7.184 16 16 16s16-7.184 16-16zm-16.848 4.464-5.648-5.648c-.24-.24-.352-.544-.352-.848s.112-.608.352-.848a1.207 1.207 0 0 1 1.696 0l4.8 4.8 4.8-4.8c.464-.464 1.232-.464 1.696 0s.464 1.232 0 1.696l-5.648 5.648c-.464.48-1.232.48-1.696 0z"/>
    </symbol>
    <symbol id="icon-Frame-8" viewBox="0 0 32 32">
      <path d="M0 16c0 8.816 7.184 16 16 16s16-7.184 16-16c0-8.816-7.184-16-16-16S0 7.184 0 16zm16.848-4.464 5.648 5.648c.24.24.352.544.352.848s-.112.608-.352.848a1.207 1.207 0 0 1-1.696 0l-4.8-4.8-4.8 4.8c-.464.464-1.232.464-1.696 0s-.464-1.232 0-1.696l5.648-5.648a1.179 1.179 0 0 1 1.696 0z"/>
    </symbol>
    <symbol id="icon-Frame-50" viewBox="0 0 32 32">
      <path d="M19.549 19.549A8.236 8.236 0 1 0 7.901 7.902a8.236 8.236 0 0 0 11.648 11.647zm1.747 5.629c-5.329 3.531-12.581 2.949-17.276-1.747-5.36-5.36-5.36-14.051 0-19.411s14.051-5.36 19.411 0c4.695 4.695 5.278 11.947 1.747 17.276l6.018 6.018a2.745 2.745 0 1 1-3.882 3.882l-6.018-6.018z"/>
    </symbol>
    <symbol id="icon-Frame-51" viewBox="0 0 32 32">
      <path d="M16 0C7.184 0 0 7.184 0 16s7.184 16 16 16c8.816 0 16-7.184 16-16S24.816 0 16 0zm4.464 16.848-5.648 5.648c-.24.24-.544.352-.848.352s-.608-.112-.848-.352a1.207 1.207 0 0 1 0-1.696l4.8-4.8-4.8-4.8c-.464-.464-.464-1.232 0-1.696s1.232-.464 1.696 0l5.648 5.648c.48.464.48 1.232 0 1.696z"/>
    </symbol>
    <symbol id="icon-Frame-53" viewBox="0 0 32 32">
      <path d="M16 0C7.161 0 0 7.161 0 16s7.161 16 16 16 16-7.161 16-16S24.839 0 16 0z"/>
    </symbol>
    <symbol id="icon-Frame-54" viewBox="0 0 32 32">
      <path d="M28.191 15.238h-2.286V9.143a3.048 3.048 0 0 0-3.048-3.048h-6.095V3.809a3.81 3.81 0 1 0-7.62 0v2.286H3.047A3.047 3.047 0 0 0-.001 9.143v5.79h2.286c2.286 0 4.114 1.829 4.114 4.114s-1.829 4.114-4.114 4.114H-.001v5.791A3.047 3.047 0 0 0 3.047 32h5.79v-2.286c0-2.286 1.829-4.114 4.114-4.114s4.114 1.829 4.114 4.114V32h5.79a3.046 3.046 0 0 0 3.048-3.048v-6.095h2.286a3.81 3.81 0 1 0 0-7.62z"/>
    </symbol>
    <symbol id="icon-Frame-55" viewBox="0 0 32 32">
      <path d="M4.202 11.005a12.713 12.713 0 0 1 2.736-4.066 12.675 12.675 0 0 1 4.067-2.736c3.096-1.306 6.69-1.323 9.808-.066A3.983 3.983 0 0 0 24.8 7.999c2.218 0 4-1.782 4-4s-1.782-4-4-4a3.986 3.986 0 0 0-2.821 1.16c-3.89-1.557-8.357-1.533-12.216.094a15.873 15.873 0 0 0-5.088 3.422A15.967 15.967 0 0 0 0 15.998h3.2a12.8 12.8 0 0 1 1.002-4.995zm23.595 9.99c-.642 1.523-1.563 2.893-2.736 4.066s-2.542 2.094-4.067 2.736c-3.098 1.306-6.691 1.323-9.808.066A3.981 3.981 0 0 0 7.2 24.001c-2.218 0-4 1.782-4 4s1.782 4 4 4a3.986 3.986 0 0 0 2.821-1.16A15.958 15.958 0 0 0 16 32.001a15.962 15.962 0 0 0 16-16h-3.2c0 1.736-.338 3.416-1.003 4.995z"/>
      <path d="M16 8.739c-4.003 0-7.261 3.258-7.261 7.261s3.258 7.261 7.261 7.261 7.261-3.258 7.261-7.261S20.003 8.739 16 8.739z"/>
    </symbol>
    <symbol id="icon-Frame-84" viewBox="0 0 32 32">
      <path d="M15.752 31.751c8.679.136 15.863-6.825 16-15.504S24.927.384 16.248.247.385 7.072.248 15.751c-.136 8.679 6.825 15.863 15.504 16zm-4.134-16.655 5.648-5.473c.24-.233.541-.338.84-.333s.597.12.829.36c.45.464.438 1.22-.026 1.67l-4.8 4.651 4.651 4.8c.45.464.438 1.22-.026 1.67s-1.22.438-1.67-.026l-5.473-5.648a1.162 1.162 0 0 1 .026-1.67z"/>
    </symbol>
    <symbol id="icon-Frame-150" viewBox="0 0 32 32">
      <path stroke-linejoin="round" stroke-linecap="round" stroke-width="4" d="M25.333 16H6.666M16 25.334l-9.333-9.333L16 6.668"/>
    </symbol>
    <symbol id="icon-iconoir_slash" viewBox="0 0 32 32">
      <path stroke-linejoin="round" stroke-linecap="round" stroke-width="1.5" d="m20 5.333-9.333 21.333"/>
    </symbol>
    <symbol id="icon-menu" viewBox="0 0 32 32">
      <path stroke-linejoin="round" stroke-linecap="round" stroke-width="4" d="M4 16h24M4 8h24M4 24h24"/>
    </symbol>
<symbol id="icon-icon-close-new" viewBox="0 0 32 32">
<path stroke-linejoin="round" stroke-linecap="round" stroke-miterlimit="4" stroke-width="2.9091" d="M24 8l-16 16M8 8l16 16"></path>
</symbol>
<symbol id="icon-Icon-dropdown-new" viewBox="0 0 32 32">
<path d="M2.667 16c0-7.364 5.969-13.333 13.333-13.333s13.333 5.969 13.333 13.333c0 7.364-5.969 13.334-13.333 13.334s-13.333-5.969-13.333-13.334zM12.943 13.724c-0.241-0.241-0.575-0.391-0.943-0.391-0.736 0-1.333 0.597-1.333 1.333 0 0.368 0.149 0.702 0.391 0.943v0l4 4c0.241 0.241 0.574 0.39 0.943 0.39s0.701-0.149 0.943-0.39l4-4c0.233-0.24 0.377-0.568 0.377-0.929 0-0.736-0.597-1.333-1.333-1.333-0.362 0-0.689 0.144-0.93 0.378l0-0-3.057 3.057-3.057-3.057z"></path>
</symbol>
<symbol id="icon-unlock-5-1" viewBox="0 0 32 32">
<path fill="none" stroke="#daa520" style="stroke: var(--color1, #daa520)" stroke-linejoin="round" stroke-linecap="round" stroke-miterlimit="4" stroke-width="4" d="M25.333 14.667h-18.666c-1.473 0-2.667 1.194-2.667 2.667v0 9.333c0 1.473 1.194 2.667 2.667 2.667v0h18.666c1.473 0 2.667-1.194 2.667-2.667v-9.333c0-1.473-1.194-2.667-2.667-2.667v0zM9.333 14.667v-5.333c0-0.001 0-0.003 0-0.004 0-3.682 2.985-6.667 6.667-6.667 3.211 0 5.892 2.27 6.525 5.294l0.008 0.043"></path>
</symbol>
  </defs>
</svg>
