<svg aria-hidden="true" style="position:absolute;width:0;height:0;overflow:hidden" xmlns="http://www.w3.org/2000/svg">
  <defs>
    <symbol id="icon-arrow-left" viewBox="0 0 32 32">
      <path d="M15.642 31.531c8.619.136 15.753-6.778 15.888-15.397S24.752.381 16.133.246C7.514.11.38 7.024.245 15.643s6.778 15.753 15.397 15.888zm-4.105-16.54 5.609-5.435c.238-.231.537-.336.834-.331s.593.119.824.357a1.18 1.18 0 0 1-.026 1.658l-4.767 4.619 4.619 4.767c.447.461.435 1.212-.026 1.658s-1.212.435-1.658-.026l-5.435-5.609a1.153 1.153 0 0 1 .026-1.658z"/>
    </symbol>
    <symbol id="icon-arrow-right" viewBox="0 0 32 32">
      <path d="M16 0C7.184 0 0 7.184 0 16s7.184 16 16 16c8.816 0 16-7.184 16-16S24.816 0 16 0zm4.464 16.848-5.648 5.648c-.24.24-.544.352-.848.352s-.608-.112-.848-.352a1.207 1.207 0 0 1 0-1.696l4.8-4.8-4.8-4.8c-.464-.464-.464-1.232 0-1.696s1.232-.464 1.696 0l5.648 5.648c.48.464.48 1.232 0 1.696z"/>
    </symbol>
    <symbol id="icon-dot-2" viewBox="0 0 32 32">
      <path d="M16 0C7.161 0 0 7.161 0 16s7.161 16 16 16 16-7.161 16-16S24.839 0 16 0z"/>
    </symbol>
    <symbol id="icon-dot-3" viewBox="0 0 32 32">
      <path d="M16 0C7.161 0 0 7.161 0 16s7.161 16 16 16 16-7.161 16-16S24.839 0 16 0z"/>
    </symbol>
    <symbol id="icon-Frame-7" viewBox="0 0 32 32">
      <path d="M32 16c0-8.816-7.184-16-16-16S0 7.184 0 16c0 8.816 7.184 16 16 16s16-7.184 16-16zm-16.848 4.464-5.648-5.648c-.24-.24-.352-.544-.352-.848s.112-.608.352-.848a1.207 1.207 0 0 1 1.696 0l4.8 4.8 4.8-4.8c.464-.464 1.232-.464 1.696 0s.464 1.232 0 1.696l-5.648 5.648c-.464.48-1.232.48-1.696 0z"/>
    </symbol>
    <symbol id="icon-Frame-8" viewBox="0 0 32 32">
      <path d="M0 16c0 8.816 7.184 16 16 16s16-7.184 16-16c0-8.816-7.184-16-16-16S0 7.184 0 16zm16.848-4.464 5.648 5.648c.24.24.352.544.352.848s-.112.608-.352.848a1.207 1.207 0 0 1-1.696 0l-4.8-4.8-4.8 4.8c-.464.464-1.232.464-1.696 0s-.464-1.232 0-1.696l5.648-5.648a1.179 1.179 0 0 1 1.696 0z"/>
    </symbol>
    <symbol id="icon-Frame-50" viewBox="0 0 32 32">
      <path d="M19.549 19.549A8.236 8.236 0 1 0 7.901 7.902a8.236 8.236 0 0 0 11.648 11.647zm1.747 5.629c-5.329 3.531-12.581 2.949-17.276-1.747-5.36-5.36-5.36-14.051 0-19.411s14.051-5.36 19.411 0c4.695 4.695 5.278 11.947 1.747 17.276l6.018 6.018a2.745 2.745 0 1 1-3.882 3.882l-6.018-6.018z"/>
    </symbol>
    <symbol id="icon-Frame-51" viewBox="0 0 32 32">
      <path d="M16 0C7.184 0 0 7.184 0 16s7.184 16 16 16c8.816 0 16-7.184 16-16S24.816 0 16 0zm4.464 16.848-5.648 5.648c-.24.24-.544.352-.848.352s-.608-.112-.848-.352a1.207 1.207 0 0 1 0-1.696l4.8-4.8-4.8-4.8c-.464-.464-.464-1.232 0-1.696s1.232-.464 1.696 0l5.648 5.648c.48.464.48 1.232 0 1.696z"/>
    </symbol>
    <symbol id="icon-Frame-53" viewBox="0 0 32 32">
      <path d="M16 0C7.161 0 0 7.161 0 16s7.161 16 16 16 16-7.161 16-16S24.839 0 16 0z"/>
    </symbol>
    <symbol id="icon-Frame-54" viewBox="0 0 32 32">
      <path d="M28.191 15.238h-2.286V9.143a3.048 3.048 0 0 0-3.048-3.048h-6.095V3.809a3.81 3.81 0 1 0-7.62 0v2.286H3.047A3.047 3.047 0 0 0-.001 9.143v5.79h2.286c2.286 0 4.114 1.829 4.114 4.114s-1.829 4.114-4.114 4.114H-.001v5.791A3.047 3.047 0 0 0 3.047 32h5.79v-2.286c0-2.286 1.829-4.114 4.114-4.114s4.114 1.829 4.114 4.114V32h5.79a3.046 3.046 0 0 0 3.048-3.048v-6.095h2.286a3.81 3.81 0 1 0 0-7.62z"/>
    </symbol>
    <symbol id="icon-Frame-55" viewBox="0 0 32 32">
      <path d="M4.202 11.005a12.713 12.713 0 0 1 2.736-4.066 12.675 12.675 0 0 1 4.067-2.736c3.096-1.306 6.69-1.323 9.808-.066A3.983 3.983 0 0 0 24.8 7.999c2.218 0 4-1.782 4-4s-1.782-4-4-4a3.986 3.986 0 0 0-2.821 1.16c-3.89-1.557-8.357-1.533-12.216.094a15.873 15.873 0 0 0-5.088 3.422A15.967 15.967 0 0 0 0 15.998h3.2a12.8 12.8 0 0 1 1.002-4.995zm23.595 9.99c-.642 1.523-1.563 2.893-2.736 4.066s-2.542 2.094-4.067 2.736c-3.098 1.306-6.691 1.323-9.808.066A3.981 3.981 0 0 0 7.2 24.001c-2.218 0-4 1.782-4 4s1.782 4 4 4a3.986 3.986 0 0 0 2.821-1.16A15.958 15.958 0 0 0 16 32.001a15.962 15.962 0 0 0 16-16h-3.2c0 1.736-.338 3.416-1.003 4.995z"/>
      <path d="M16 8.739c-4.003 0-7.261 3.258-7.261 7.261s3.258 7.261 7.261 7.261 7.261-3.258 7.261-7.261S20.003 8.739 16 8.739z"/>
    </symbol>
    <symbol id="icon-Frame-84" viewBox="0 0 32 32">
      <path d="M15.752 31.751c8.679.136 15.863-6.825 16-15.504S24.927.384 16.248.247.385 7.072.248 15.751c-.136 8.679 6.825 15.863 15.504 16zm-4.134-16.655 5.648-5.473c.24-.233.541-.338.84-.333s.597.12.829.36c.45.464.438 1.22-.026 1.67l-4.8 4.651 4.651 4.8c.45.464.438 1.22-.026 1.67s-1.22.438-1.67-.026l-5.473-5.648a1.162 1.162 0 0 1 .026-1.67z"/>
    </symbol>
    <symbol id="icon-Frame-150" viewBox="0 0 32 32">
      <path stroke-linejoin="round" stroke-linecap="round" stroke-width="4" d="M25.333 16H6.666M16 25.334l-9.333-9.333L16 6.668"/>
    </symbol>
    <symbol id="icon-iconoir_slash" viewBox="0 0 32 32">
      <path stroke-linejoin="round" stroke-linecap="round" stroke-width="1.5" d="m20 5.333-9.333 21.333"/>
    </symbol>
    <symbol id="icon-menu" viewBox="0 0 32 32">
      <path stroke-linejoin="round" stroke-linecap="round" stroke-width="4" d="M4 16h24M4 8h24M4 24h24"/>
    </symbol>
    <symbol id="icon-unlock" viewBox="0 0 32 32">
      <path stroke-linejoin="round" stroke-linecap="round" stroke-width="4" d="M25.333 14.667H6.666a2.667 2.667 0 0 0-2.667 2.667v9.333a2.667 2.667 0 0 0 2.667 2.667h18.667A2.667 2.667 0 0 0 28 26.667v-9.333a2.667 2.667 0 0 0-2.667-2.667zM9.333 14.667V9.334a6.666 6.666 0 0 1 13.199-1.333"/>
    </symbol>
    <symbol id="icon-Google-Play-2" viewBox="0 0 102 32">
      <path d="M98.391.64c.843 0 1.652.354 2.248.984s.931 1.485.931 2.376v24c0 .891-.335 1.746-.931 2.376s-1.405.984-2.248.984H3.784c-.843 0-1.652-.354-2.248-.984S.605 28.891.605 28V4c0-.891.335-1.746.931-2.376S2.941.64 3.784.64h94.607zm0-.64H3.784C2.78 0 1.818.421 1.108 1.172S0 2.94 0 4v24c0 1.061.399 2.078 1.108 2.828S2.78 32 3.784 32h94.607c1.004 0 1.966-.421 2.676-1.172s1.109-1.768 1.109-2.828V4c0-1.061-.399-2.078-1.109-2.828S99.395 0 98.391 0z"/>
      <path d="M35.89 8.192c.013.293-.031.586-.129.861s-.247.526-.439.739c-.215.235-.474.419-.761.54s-.595.177-.904.164c-.31.007-.619-.053-.907-.177s-.548-.309-.766-.543c-.441-.477-.688-1.117-.688-1.784s.247-1.307.688-1.784c.337-.348.764-.583 1.228-.676s.942-.038 1.376.156c.273.119.516.302.711.536l-.401.424c-.15-.191-.341-.343-.556-.443s-.45-.146-.685-.133c-.297.002-.588.081-.849.23s-.484.363-.649.624a2.014 2.014 0 0 0-.171 1.789c.112.29.289.548.517.749s.498.341.788.406.591.054.876-.032a1.8 1.8 0 0 0 .76-.462c.231-.268.365-.614.378-.976h-1.65v-.576h2.202c.017.122.028.245.03.368zM39.356 6.192h-2.044v1.52h1.862v.576h-1.862v1.52h2.044v.592h-2.634V5.6h2.634v.592zM41.839 10.4h-.583V6.192h-1.272V5.6h3.156v.592h-1.302V10.4zM45.366 10.4V5.6h.583v4.8h-.583zM48.537 10.4h-.583V6.192h-1.271V5.6h3.118v.592h-1.264V10.4zM55.712 9.776c-.218.231-.478.415-.764.54s-.592.19-.901.19c-.309 0-.616-.064-.901-.19s-.545-.309-.764-.54c-.428-.481-.666-1.116-.666-1.776s.238-1.295.666-1.776c.214-.238.472-.425.759-.551s.595-.186.906-.177c.31-.005.617.057.904.182s.545.311.761.546c.218.234.389.512.503.817s.17.631.163.959c.01.328-.044.656-.159.961s-.287.583-.508.815zm-2.899-.4c.161.173.353.31.565.403s.439.142.669.142c.229 0 .457-.048.668-.142s.404-.231.565-.403c.326-.375.508-.866.508-1.376s-.181-1.001-.508-1.376c-.161-.173-.353-.31-.565-.403s-.439-.142-.668-.142c-.23 0-.457.048-.669.142s-.404.231-.565.403c-.327.375-.508.866-.508 1.376s.181 1.001.508 1.376zM57.203 10.4V5.6h.704l2.21 3.736V5.6h.583v4.8h-.605l-2.309-3.912V10.4h-.583zM51.572 17.4c-.638.002-1.261.203-1.79.579s-.941.909-1.184 1.532-.305 1.309-.179 1.97.435 1.267.886 1.743 1.027.799 1.653.929c.626.13 1.274.061 1.862-.199s1.091-.697 1.444-1.259a3.544 3.544 0 0 0 .539-1.895c.006-.45-.073-.896-.234-1.313s-.398-.795-.7-1.112c-.301-.317-.66-.567-1.055-.735s-.817-.25-1.243-.241zm0 5.464c-.391.029-.781-.067-1.119-.276s-.61-.52-.779-.894c-.169-.374-.227-.792-.168-1.202s.234-.79.501-1.094c.267-.303.614-.515.996-.607s.781-.06 1.146.091c.365.151.678.415.899.756s.34.746.341 1.16c.012.262-.026.525-.111.772s-.216.473-.386.665-.373.347-.6.455a1.774 1.774 0 0 1-.72.172zM44.518 17.4c-.638.002-1.261.203-1.79.579s-.941.909-1.184 1.532-.305 1.309-.179 1.97.434 1.267.886 1.743 1.027.799 1.653.929c.626.13 1.274.061 1.862-.199s1.091-.697 1.444-1.259a3.544 3.544 0 0 0 .539-1.895c.006-.45-.073-.896-.234-1.313s-.399-.795-.7-1.112-.66-.567-1.055-.735a3.008 3.008 0 0 0-1.243-.241zm0 5.464c-.391.029-.781-.067-1.119-.276s-.61-.52-.779-.894a2.162 2.162 0 0 1 .333-2.296c.267-.303.614-.515.996-.607s.781-.06 1.146.091c.365.151.678.415.899.756s.34.746.341 1.16c.012.262-.025.525-.111.772s-.216.473-.386.665c-.169.192-.373.347-.6.455s-.472.166-.72.172zm-8.386-4.416v1.44h3.27a3.1 3.1 0 0 1-.757 1.816c-.328.353-.723.63-1.158.812s-.902.265-1.37.244c-.963 0-1.887-.405-2.569-1.125s-1.064-1.697-1.064-2.715c0-1.018.383-1.995 1.064-2.715s1.605-1.125 2.569-1.125a3.413 3.413 0 0 1 2.483 1.032l.961-1.016c-.451-.472-.987-.843-1.575-1.093s-1.219-.373-1.853-.363c-.673-.028-1.344.088-1.973.342s-1.204.638-1.689 1.131c-.485.493-.871 1.085-1.135 1.74s-.399 1.359-.399 2.071.136 1.416.399 2.071c.264.655.65 1.247 1.135 1.74s1.06.878 1.689 1.131a4.77 4.77 0 0 0 1.973.342c.648.027 1.293-.09 1.894-.346s1.145-.642 1.595-1.134a4.966 4.966 0 0 0 1.181-3.384c.003-.3-.02-.6-.068-.896h-4.602zm34.293 1.12c-.197-.614-.566-1.15-1.058-1.537s-1.084-.607-1.697-.631c-.414-.001-.824.088-1.204.261s-.723.427-1.007.746-.503.695-.643 1.107c-.141.412-.2.849-.174 1.286-.006.73.211 1.443.619 2.032s.986 1.023 1.647 1.236 1.369.195 2.019-.052a3.235 3.235 0 0 0 1.588-1.32l-1.098-.8c-.164.288-.395.526-.673.69s-.591.249-.909.246c-.328.014-.653-.077-.931-.261s-.497-.453-.628-.771l4.307-1.88-.159-.352zm-4.389 1.136c-.015-.248.016-.498.093-.733s.198-.452.355-.638c.157-.186.348-.336.561-.443s.444-.167.679-.179c.244-.016.486.045.698.174s.382.322.49.554l-2.876 1.264zM62.539 24h1.415V14h-1.415v10zm-2.316-5.84h-.053c-.212-.255-.472-.458-.765-.596s-.61-.208-.93-.204c-.827.042-1.607.42-2.178 1.053s-.89 1.475-.89 2.351c0 .875.319 1.717.89 2.351s1.351 1.011 2.178 1.053c.321.007.639-.061.932-.2s.554-.343.763-.6h.053v.488c0 1.304-.658 2-1.718 2-.354-.008-.698-.127-.987-.343s-.512-.516-.64-.865l-1.226.536c.227.602.621 1.117 1.13 1.477s1.11.548 1.723.539c1.658 0 3.027-1.032 3.027-3.544V17.6h-1.309v.56zm-1.627 4.704c-.496-.033-.961-.264-1.302-.647s-.529-.888-.529-1.413.189-1.031.529-1.413.806-.614 1.302-.647c.243.011.48.074.699.184s.415.266.576.458.284.416.361.659c.077.243.108.5.089.756.02.257-.008.515-.085.759s-.199.47-.36.663c-.161.193-.358.349-.578.46s-.459.172-.703.182zM77.055 14h-3.391v10h1.415v-3.792h1.975c.403.031.808-.027 1.19-.169s.731-.366 1.027-.657c.296-.291.532-.644.694-1.036a3.255 3.255 0 0 0 0-2.484 3.11 3.11 0 0 0-.694-1.036c-.296-.291-.646-.515-1.027-.657s-.787-.2-1.19-.169zm0 4.8H75.08v-3.408h2.006c.213 0 .423.044.62.13s.375.212.525.371c.15.159.27.348.351.555a1.8 1.8 0 0 1 0 1.31 1.717 1.717 0 0 1-.351.555c-.15.159-.329.285-.525.371s-.407.13-.62.13l-.03-.016zm8.734-1.432c-.515-.034-1.029.093-1.477.365s-.811.676-1.043 1.163l1.249.552c.126-.24.316-.437.545-.566s.49-.185.749-.162c.18-.022.362-.006.536.047s.336.142.477.262c.141.12.258.268.344.436s.139.353.157.543v.096a3.023 3.023 0 0 0-1.476-.384c-1.347 0-2.725.8-2.725 2.256.013.309.085.613.212.892s.305.529.524.734.476.362.754.46c.278.098.572.137.864.113.355.021.709-.059 1.026-.23s.584-.429.776-.746h.045v.8h1.362v-3.848c0-1.752-1.256-2.768-2.868-2.768l-.03-.016zm-.174 5.48c-.462 0-1.105-.248-1.105-.848 0-.8.803-1.072 1.514-1.072.45-.012.894.104 1.287.336-.048.434-.243.836-.549 1.13s-.703.461-1.116.47l-.03-.016zm8.038-5.248-1.62 4.336h-.045l-1.68-4.336h-1.514l2.52 6.064-1.438 3.368h1.476l3.875-9.432h-1.574zM80.938 24h1.408V14h-1.408v10zM7.902 6.032a1.661 1.661 0 0 0-.356 1.12v17.696c-.026.408.102.811.356 1.12l.053.064 9.377-9.912v-.24L7.955 5.976l-.053.056z"/>
      <path d="m20.435 19.424-3.103-3.304v-.24l3.103-3.304.068.048 3.716 2.224c1.06.632 1.06 1.672 0 2.312l-3.701 2.224-.083.04z"/>
      <path d="M20.526 19.376 17.332 16l-9.43 9.968c.214.201.488.317.774.327s.567-.086.793-.271l11.058-6.648zM20.526 12.624 9.468 5.984c-.225-.188-.505-.286-.792-.278s-.561.124-.775.326L17.331 16l3.194-3.376z"/>
      <path d="m20.435 19.304-10.967 6.6c-.218.174-.484.268-.757.268s-.539-.094-.757-.268l-.053.056.053.064c.218.174.484.268.757.268s.539-.094.757-.268l11.058-6.648-.091-.072z"/>
      <path d="M7.902 25.856a1.664 1.664 0 0 1-.333-1.128v.12c-.026.408.102.811.356 1.12l.053-.056-.076-.056zM24.219 17.04l-3.784 2.264.068.072 3.716-2.224c.219-.098.41-.257.551-.459s.228-.442.251-.693c-.047.228-.145.44-.284.621s-.317.324-.518.419zM9.468 6.096l14.751 8.864c.201.095.379.238.518.419s.237.393.284.621c-.023-.251-.11-.49-.251-.693s-.331-.361-.551-.46L9.468 5.983c-1.052-.64-1.922-.112-1.922 1.168v.12c.023-1.28.87-1.808 1.922-1.176z"/>
    </symbol>
  </defs>
</svg>
